0
SECTION
2
ENTITIES
0
LWPOLYLINE
8
WALLS
90
4
70
1
10
0
20
0
10
12
20
0
10
12
20
8
10
0
20
8
0
LINE
8
WALLS
10
7
20
0
30
0
11
7
21
5
31
0
0
LINE
8
WALLS
10
7
20
5
30
0
11
12
21
5
31
0
0
CIRCLE
8
COLUMNS
10
3
20
4
30
0
40
0.25
0
CIRCLE
8
COLUMNS
10
9
20
2.5
30
0
40
0.25
0
ARC
8
DOORS
10
7
20
0
30
0
40
1
50
0
51
90
0
LINE
8
DIM
10
0
20
-0.6
30
0
11
12
21
-0.6
31
0
0
TEXT
8
DIM
10
5.4
20
-0.5
30
0
40
0.3
1
12.00 m
0
TEXT
8
TEXT
10
2
20
6.5
30
0
40
0.4
1
LIVING
0
TEXT
8
TEXT
10
9
20
3.5
30
0
40
0.4
1
ROOM
0
TEXT
8
TITLE
10
0.2
20
7.4
30
0
40
0.5
1
A-101 GROUND FLOOR (DXF)
0
ENDSEC
0
EOF
